<svg width="23" height="22" fill="none" xmlns="http://www.w3.org/2000/svg"><path d="M22.735 2.888a.66.66 0 0 0-.515-.248H4.654L4.164.512A.66.66 0 0 0 3.52 0H.66a.66.66 0 0 0 0 1.32h2.335l3.334 14.448c.07.3.336.512.643.512h13.224a.66.66 0 0 0 0-1.32H7.497l-.507-2.2h13.25a.66.66 0 0 0 .644-.515l1.98-8.8a.66.66 0 0 0-.129-.557Zm-3.023 8.552H6.685L4.96 3.96h16.436l-1.683 7.48ZM9.68 17.16a2.423 2.423 0 0 0-2.42 2.42A2.423 2.423 0 0 0 9.68 22a2.423 2.423 0 0 0 2.42-2.42 2.423 2.423 0 0 0-2.42-2.42Zm0 3.52a1.101 1.101 0 0 1 0-2.2 1.101 1.101 0 0 1 0 2.2ZM17.6 17.16a2.423 2.423 0 0 0-2.42 2.42A2.423 2.423 0 0 0 17.6 22a2.423 2.423 0 0 0 2.42-2.42 2.423 2.423 0 0 0-2.42-2.42Zm0 3.52a1.101 1.101 0 0 1 0-2.2 1.101 1.101 0 0 1 0 2.2Z" fill="#232323"/></svg>