<svg width="19" height="18" fill="none" xmlns="http://www.w3.org/2000/svg"><path d="M15.18 11.15c-.368-.383-.812-.588-1.284-.588-.467 0-.915.201-1.299.585l-1.2 1.196c-.099-.053-.198-.102-.293-.152-.136-.068-.266-.133-.376-.201-1.124-.714-2.146-1.645-3.126-2.85-.475-.6-.794-1.105-1.026-1.618.311-.285.6-.58.881-.866.107-.106.213-.216.32-.323.797-.797.797-1.83 0-2.629L6.738 2.667c-.118-.118-.24-.24-.353-.36a17.94 17.94 0 0 0-.714-.707c-.369-.365-.81-.559-1.273-.559-.464 0-.912.194-1.292.559l-.007.007L1.808 2.91a2.78 2.78 0 0 0-.824 1.767c-.092 1.11.235 2.143.486 2.819.615 1.66 1.535 3.199 2.906 4.847a17.88 17.88 0 0 0 5.953 4.662c.874.414 2.04.904 3.343.988.08.003.164.007.24.007.877 0 1.614-.315 2.192-.942.004-.008.011-.011.015-.019.198-.24.425-.456.665-.688.163-.155.33-.319.494-.49.376-.391.573-.847.573-1.314 0-.471-.201-.923-.585-1.303l-2.085-2.094Zm1.36 4c-.003 0-.003.005 0 0-.148.16-.3.305-.463.464a9.986 9.986 0 0 0-.733.76c-.384.41-.836.604-1.428.604-.058 0-.118 0-.175-.004-1.128-.072-2.177-.512-2.963-.889a16.876 16.876 0 0 1-5.608-4.391C3.875 10.132 3.01 8.689 2.435 7.139c-.353-.946-.483-1.683-.426-2.378.038-.445.21-.813.525-1.129l1.295-1.295c.186-.175.384-.27.578-.27.239 0 .433.144.554.266l.012.011c.231.217.452.441.683.68.118.122.24.243.361.369L7.054 4.43c.403.403.403.775 0 1.178-.11.11-.216.22-.326.326-.32.327-.623.631-.954.927-.007.008-.015.012-.019.02-.326.326-.266.645-.197.862l.011.034c.27.653.65 1.269 1.227 2.002l.004.004c1.048 1.292 2.154 2.298 3.374 3.07.155.098.315.178.467.254.136.068.266.133.376.201.015.008.03.02.046.027.129.064.25.095.376.095.315 0 .512-.198.577-.262l1.3-1.3c.128-.129.334-.284.573-.284.236 0 .43.148.547.277l.008.007 2.093 2.094c.391.387.391.786.004 1.189ZM10.683 4.282c.995.167 1.9.638 2.62 1.36a4.843 4.843 0 0 1 1.361 2.621.51.51 0 0 0 .505.426c.03 0 .057-.004.088-.008a.513.513 0 0 0 .421-.593 5.86 5.86 0 0 0-1.645-3.172 5.86 5.86 0 0 0-3.172-1.645.516.516 0 0 0-.593.418.507.507 0 0 0 .415.593ZM18.934 7.94a9.64 9.64 0 0 0-2.709-5.223 9.64 9.64 0 0 0-5.223-2.71.51.51 0 1 0-.167 1.011c1.77.3 3.384 1.14 4.669 2.42a8.607 8.607 0 0 1 2.42 4.67.51.51 0 0 0 .505.425c.03 0 .057-.004.087-.008a.503.503 0 0 0 .418-.585Z" fill="#232323"/></svg>