<svg width="24" height="18" fill="none" xmlns="http://www.w3.org/2000/svg"><path d="M20.765 0H2.892A2.895 2.895 0 0 0 0 2.892v12.216A2.895 2.895 0 0 0 2.892 18H20.76a2.895 2.895 0 0 0 2.892-2.892V2.898A2.892 2.892 0 0 0 20.765 0Zm1.571 15.108c0 .866-.705 1.57-1.57 1.57H2.891a1.573 1.573 0 0 1-1.57-1.57V2.898c0-.867.704-1.572 1.57-1.572H20.76c.866 0 1.571.705 1.571 1.571v12.21h.005Z" fill="#9E3040"/><path d="M14.917 8.848 20.7 3.661a.664.664 0 0 0 .05-.935.664.664 0 0 0-.935-.049l-7.977 7.16-1.557-1.39c-.005-.005-.01-.01-.01-.015a.978.978 0 0 0-.107-.093L3.832 2.672a.66.66 0 0 0-.935.054.66.66 0 0 0 .054.935l5.853 5.231-5.828 5.457a.663.663 0 0 0 .905.97l5.917-5.536 1.605 1.434a.66.66 0 0 0 .88-.005l1.65-1.478 5.883 5.589a.66.66 0 1 0 .91-.96l-5.81-5.515Z" fill="#9E3040"/></svg>