<svg width="17" height="22" fill="none" xmlns="http://www.w3.org/2000/svg"><path d="M8.75 0C13.3 0 17 3.7 17 8.25c0 5.719-7.447 13.232-7.763 13.55a.69.69 0 0 1-.974 0C7.947 21.481.5 13.968.5 8.25.5 3.7 4.2 0 8.75 0Zm0 20.318c1.642-1.757 6.875-7.7 6.875-12.068A6.883 6.883 0 0 0 8.75 1.375 6.883 6.883 0 0 0 1.875 8.25c0 4.364 5.233 10.311 6.875 12.068Z" fill="#9E3040"/><path d="M8.75 4.125a4.13 4.13 0 0 1 4.125 4.125 4.13 4.13 0 0 1-4.125 4.125A4.13 4.13 0 0 1 4.625 8.25 4.13 4.13 0 0 1 8.75 4.125Zm0 6.875a2.753 2.753 0 0 0 2.75-2.75A2.753 2.753 0 0 0 8.75 5.5 2.753 2.753 0 0 0 6 8.25 2.753 2.753 0 0 0 8.75 11Z" fill="#9E3040"/></svg>