<svg width="118" height="105" fill="none" xmlns="http://www.w3.org/2000/svg"><g opacity=".1" fill="#fff"><path d="M65.11 83.908a2.293 2.293 0 0 0-2.293 2.293v7.336c0 6.32 5.142 11.463 11.462 11.463h31.638c6.321 0 11.463-5.142 11.463-11.463V66.03c0-6.32-5.142-11.463-11.463-11.463H91.086c.522-17.127 7.02-26.03 19.821-27.195a2.293 2.293 0 0 0 2.085-2.283V2.293a2.292 2.292 0 0 0-2.421-2.29c-15.798.89-27.857 6.326-35.844 16.16-7.903 9.731-11.91 23.95-11.91 42.263v8.212a2.293 2.293 0 0 0 4.585 0v-8.212c0-33.62 13.42-51.2 41.005-53.669V23.06c-6.972 1.085-12.365 4.33-16.05 9.666-3.909 5.66-5.89 13.78-5.89 24.133a2.293 2.293 0 0 0 2.292 2.292h17.158a6.886 6.886 0 0 1 6.878 6.878v27.508a6.886 6.886 0 0 1-6.878 6.878H74.279a6.886 6.886 0 0 1-6.877-6.878v-7.336a2.293 2.293 0 0 0-2.293-2.293ZM11.463 105H43.1c6.321 0 11.463-5.142 11.463-11.463V66.03c0-6.32-5.142-11.463-11.463-11.463H28.27c.521-17.127 7.02-26.03 19.82-27.195a2.293 2.293 0 0 0 2.086-2.283V2.293a2.292 2.292 0 0 0-2.422-2.29C31.957.894 19.897 6.33 11.91 16.164 4.007 25.894 0 40.113 0 58.426v35.111C0 99.857 5.142 105 11.463 105ZM4.585 58.426c0-33.62 13.42-51.2 41.005-53.669V23.06c-6.972 1.085-12.365 4.33-16.05 9.666-3.908 5.66-5.89 13.78-5.89 24.133a2.293 2.293 0 0 0 2.293 2.292H43.1a6.886 6.886 0 0 1 6.878 6.878v27.508a6.886 6.886 0 0 1-6.878 6.878H15.59V83.442a2.293 2.293 0 0 0-4.586 0v16.956c-3.579-.237-6.419-3.223-6.419-6.86V58.425Z"/><path d="M13.297 77.776a2.302 2.302 0 0 0 2.292-2.304 2.293 2.293 0 0 0-4.585 0v.023a2.283 2.283 0 0 0 2.293 2.28ZM65.11 78.712a2.293 2.293 0 0 0 2.292-2.293v-.048a2.293 2.293 0 0 0-4.585 0v.048a2.293 2.293 0 0 0 2.292 2.293Z"/></g></svg>