<svg width="138" height="138" fill="none" xmlns="http://www.w3.org/2000/svg"><g filter="url('#filter0_d_1_83')"><rect x="19" y="19" width="100" height="100" rx="5" fill="#fff"/></g><mask id="mask0_1_83" style="mask-type:alpha" maskUnits="userSpaceOnUse" x="36" y="44" width="66" height="50"><rect x="36.5" y="44" width="65" height="50" rx="10" fill="#fff"/></mask><g mask="url('#mask0_1_83')" fill="#9E3040"><path d="M52.09 80.687a.935.935 0 0 0-.936.935.936.936 0 0 1-1.87 0c0-.516.42-.935.935-.935a.935.935 0 0 0 0-1.87 2.808 2.808 0 0 0-2.804 2.805 2.808 2.808 0 0 0 2.804 2.805 2.808 2.808 0 0 0 2.805-2.805.935.935 0 0 0-.935-.935ZM89.488 80.687a.935.935 0 0 0-.935.935.936.936 0 0 1-1.87 0c0-.516.42-.935.935-.935a.935.935 0 0 0 0-1.87 2.808 2.808 0 0 0-2.805 2.805 2.808 2.808 0 0 0 2.805 2.805 2.808 2.808 0 0 0 2.805-2.805.935.935 0 0 0-.935-.935Z"/><path d="M98.837 68.533a.932.932 0 0 0-.279-.666 4.65 4.65 0 0 0-2.305-2.58.927.927 0 0 0-.09-.04l-3.09-1.16-1.882-7.152a4.646 4.646 0 0 0-4.486-3.362h-6.567v-1.87c0-1.03-.839-1.87-1.87-1.87H40.87c-1.031 0-1.87.84-1.87 1.87v26.18c0 1.03.839 1.87 1.87 1.87h3.078a6.48 6.48 0 0 0-.205.934h-3.808a.935.935 0 0 0 0 1.87h3.808c.455 3.167 3.185 5.61 6.476 5.61 3.292 0 6.022-2.443 6.477-5.61h1.938a2.808 2.808 0 0 0 2.805 2.805h5.61a2.808 2.808 0 0 0 2.805-2.805H81.14c.455 3.167 3.186 5.61 6.477 5.61 3.291 0 6.022-2.443 6.477-5.61h3.807a.935.935 0 1 0 0-1.87h-3.807a6.48 6.48 0 0 0-.206-.935h3.079c1.03 0 1.87-.839 1.87-1.87v-8.415c0-.22-.016-.436-.045-.649a.932.932 0 0 0 .044-.285Zm-1.87 5.61h-.934v-.936h.934v.935Zm-.713-6.545H80.138v-1.87h11.985l3.334 1.251c.308.16.575.371.797.619Zm-9.549-12.155c1.243 0 2.32.797 2.683 1.985l1.692 6.43H80.138v-8.415h6.567ZM44.61 77.883h-3.74v-4.676h28.984a.935.935 0 0 0 0-1.87H40.87V51.703h37.398v26.18H55.83a.939.939 0 0 0-.223.027 6.541 6.541 0 0 0-5.387-2.833 6.541 6.541 0 0 0-5.386 2.833.935.935 0 0 0-.223-.028Zm5.61 8.414a4.68 4.68 0 0 1-4.675-4.675 4.68 4.68 0 0 1 4.674-4.675 4.68 4.68 0 0 1 4.675 4.675 4.68 4.68 0 0 1-4.675 4.675Zm6.476-5.61a6.48 6.48 0 0 0-.206-.935h2.305c-.104.293-.16.607-.16.935h-1.939Zm11.288 1.87c0 .516-.42.935-.935.935h-5.61a.936.936 0 0 1-.935-.935v-1.87c0-.516.42-.935.935-.935h5.61c.515 0 .935.42.935.935v1.87Zm1.709-2.805h11.654a6.48 6.48 0 0 0-.206.935H69.854c0-.328-.057-.642-.161-.935Zm17.925 6.545a4.68 4.68 0 0 1-4.675-4.675 4.68 4.68 0 0 1 4.675-4.675 4.68 4.68 0 0 1 4.675 4.675 4.68 4.68 0 0 1-4.675 4.675Zm5.61-8.415a.936.936 0 0 0-.224.028 6.541 6.541 0 0 0-5.386-2.833 6.541 6.541 0 0 0-5.386 2.833.936.936 0 0 0-.224-.028h-1.87v-8.415h16.83v1.87h-.935c-1.031 0-1.87.84-1.87 1.87v.935c0 1.031.839 1.87 1.87 1.87h.935v1.87h-3.74Z"/><path d="M62.374 80.687c-.247 0-.487.1-.662.273a.943.943 0 0 0-.273.662c0 .246.1.487.273.662a.941.941 0 0 0 .662.273c.247 0 .487-.1.661-.273a.943.943 0 0 0 .274-.662c0-.246-.1-.487-.273-.662a.945.945 0 0 0-.662-.273ZM73.594 73.207h1.87a.935.935 0 0 0 0-1.87h-1.87a.935.935 0 1 0 0 1.87Z"/></g><defs><filter id="filter0_d_1_83" x="0" y="0" width="138" height="138" filterUnits="userSpaceOnUse" color-interpolation-filters="sRGB"><feFlood flood-opacity="0" result="BackgroundImageFix"/><feColorMatrix in="SourceAlpha" values="0 0 0 0 0 0 0 0 0 0 0 0 0 0 0 0 0 0 127 0" result="hardAlpha"/><feOffset/><feGaussianBlur stdDeviation="9.5"/><feColorMatrix values="0 0 0 0 0 0 0 0 0 0 0 0 0 0 0 0 0 0 0.19 0"/><feBlend in2="BackgroundImageFix" result="effect1_dropShadow_1_83"/><feBlend in="SourceGraphic" in2="effect1_dropShadow_1_83" result="shape"/></filter></defs></svg>