<svg width="138" height="138" fill="none" xmlns="http://www.w3.org/2000/svg"><g filter="url('#filter0_d_1_96')"><rect x="19" y="19" width="100" height="100" rx="5" fill="#fff"/></g><mask id="mask0_1_96" style="mask-type:alpha" maskUnits="userSpaceOnUse" x="30" y="39" width="78" height="60"><rect x="30" y="39" width="78" height="60" rx="10" fill="#fff"/></mask><g mask="url('#mask0_1_96')"><path d="M84.973 80.577a4.829 4.829 0 0 1 0 6.932l-1.205 1.181a.846.846 0 0 1-1.18 0 .805.805 0 0 1 0-1.155l1.206-1.181a3.22 3.22 0 0 0 0-4.621l-4.643-4.55a3.388 3.388 0 0 0-4.717 0l-1.941 1.902a4.087 4.087 0 0 1-5.7 0l-8.598-8.425a3.89 3.89 0 0 1 0-5.584l1.94-1.901a3.225 3.225 0 0 0 0-4.622l-4.642-4.55a3.382 3.382 0 0 0-4.717 0l-1.695 1.662a11.268 11.268 0 0 0 0 16.175L65.59 88.015c3.278 3.212 8.187 4.22 12.507 2.567a.84.84 0 0 1 1.08.464.812.812 0 0 1-.474 1.058c-4.941 1.89-10.55.733-14.293-2.934L47.901 72.995a12.9 12.9 0 0 1 0-18.486l1.695-1.66c1.956-1.916 5.12-1.916 7.076 0l4.643 4.549a4.837 4.837 0 0 1 0 6.932l-1.94 1.901a2.28 2.28 0 0 0 0 3.274l8.598 8.425a2.4 2.4 0 0 0 3.34 0l1.942-1.902c1.95-1.911 5.124-1.911 7.075 0l4.643 4.55ZM89.831 45H68.985c-2.299 0-4.17 1.832-4.17 4.085v8.17c0 2.252 1.871 4.084 4.17 4.084h.834v2.655c0 .452.374.817.834.817.318 0-.106.197 6.358-3.588a.808.808 0 0 0 .288-1.12.844.844 0 0 0-1.143-.282l-4.67 2.733v-2.032a.826.826 0 0 0-.833-.817h-1.668c-1.38 0-2.501-1.1-2.501-2.45v-8.17c0-1.352 1.122-2.451 2.501-2.451h20.846c1.38 0 2.501 1.1 2.501 2.45v8.17c0 1.352-1.122 2.451-2.501 2.451h-8.686a.826.826 0 0 0-.834.817c0 .451.374.817.834.817h8.686c2.299 0 4.169-1.832 4.169-4.085v-8.17C94 46.833 92.13 45 89.83 45Zm-18.449 8.987c1.265 0 2.293-1.008 2.293-2.247 0-1.239-1.028-2.247-2.293-2.247h-1.459a.826.826 0 0 0-.834.817c0 .451.374.817.834.817h1.46a.62.62 0 0 1 .625.613.62.62 0 0 1-.626.613c-1.264 0-2.293 1.008-2.293 2.246v1.43c0 .451.374.817.834.817h2.918c.461 0 .834-.366.834-.817a.826.826 0 0 0-.834-.817h-2.084v-.613a.62.62 0 0 1 .625-.612Zm7.296 2.859c.46 0 .834-.366.834-.817V50.31a.826.826 0 0 0-.834-.817.826.826 0 0 0-.834.817v2.043h-1.25V50.31a.826.826 0 0 0-.834-.817.826.826 0 0 0-.834.817v2.86c0 .45.373.817.834.817h2.084v2.042c0 .451.374.817.834.817Zm8.185 0c.346 0 .67-.213.788-.551l2.007-5.72c.185-.529-.217-1.082-.789-1.082h-2.894a.826.826 0 0 0-.834.817c0 .451.373.817.834.817H87.7l-1.627 4.636c-.187.533.22 1.083.789 1.083Zm-4.481-.621 1.459-5.719a.816.816 0 0 0-.607-.99.836.836 0 0 0-1.011.594l-1.46 5.719a.816.816 0 0 0 .608.99c.447.11.9-.157 1.01-.594Z" fill="#9E3040"/></g><defs><filter id="filter0_d_1_96" x="0" y="0" width="138" height="138" filterUnits="userSpaceOnUse" color-interpolation-filters="sRGB"><feFlood flood-opacity="0" result="BackgroundImageFix"/><feColorMatrix in="SourceAlpha" values="0 0 0 0 0 0 0 0 0 0 0 0 0 0 0 0 0 0 127 0" result="hardAlpha"/><feOffset/><feGaussianBlur stdDeviation="9.5"/><feColorMatrix values="0 0 0 0 0 0 0 0 0 0 0 0 0 0 0 0 0 0 0.19 0"/><feBlend in2="BackgroundImageFix" result="effect1_dropShadow_1_96"/><feBlend in="SourceGraphic" in2="effect1_dropShadow_1_96" result="shape"/></filter></defs></svg>