<svg width="118" height="105" fill="none" xmlns="http://www.w3.org/2000/svg"><g opacity=".1" fill="#fff"><path d="M52.865 21.092a2.293 2.293 0 0 0 2.292-2.293v-7.336C55.157 5.143 50.015 0 43.694 0H12.057C5.737 0 .594 5.142.594 11.463V38.97c0 6.32 5.142 11.463 11.463 11.463h14.83c-.52 17.127-7.02 26.03-19.82 27.195a2.293 2.293 0 0 0-2.085 2.283v22.795a2.292 2.292 0 0 0 2.42 2.289c15.799-.888 27.858-6.325 35.845-16.16 7.903-9.73 11.91-23.95 11.91-42.262v-8.212a2.293 2.293 0 0 0-4.585 0v8.212c0 33.62-13.42 51.2-41.005 53.669V81.94c6.972-1.085 12.365-4.33 16.05-9.666 3.908-5.66 5.89-13.78 5.89-24.133a2.293 2.293 0 0 0-2.292-2.292H12.057a6.886 6.886 0 0 1-6.878-6.878V11.463a6.886 6.886 0 0 1 6.878-6.878h31.637a6.886 6.886 0 0 1 6.878 6.878v7.336a2.293 2.293 0 0 0 2.293 2.293ZM106.511 0H74.873C68.553 0 63.41 5.142 63.41 11.463V38.97c0 6.32 5.143 11.463 11.463 11.463h14.831c-.521 17.127-7.02 26.03-19.821 27.195a2.293 2.293 0 0 0-2.085 2.283v22.795a2.292 2.292 0 0 0 2.421 2.289c15.798-.888 27.858-6.325 35.845-16.16 7.903-9.73 11.91-23.95 11.91-42.262V11.463c0-6.32-5.143-11.463-11.463-11.463Zm6.878 46.574c0 33.62-13.42 51.2-41.006 53.669V81.94c6.973-1.085 12.365-4.33 16.05-9.666 3.909-5.66 5.89-13.78 5.89-24.133a2.293 2.293 0 0 0-2.292-2.292H74.873a6.886 6.886 0 0 1-6.877-6.878V11.463a6.886 6.886 0 0 1 6.877-6.878h27.511v16.973a2.293 2.293 0 0 0 4.585 0V4.602c3.58.237 6.42 3.223 6.42 6.86v35.112Z"/><path d="M104.677 27.224a2.303 2.303 0 0 0-2.293 2.304 2.293 2.293 0 0 0 4.585 0v-.023a2.283 2.283 0 0 0-2.292-2.28ZM52.865 26.288a2.293 2.293 0 0 0-2.293 2.293v.048a2.293 2.293 0 0 0 4.585 0v-.048a2.293 2.293 0 0 0-2.292-2.293Z"/></g></svg>