<svg width="138" height="138" fill="none" xmlns="http://www.w3.org/2000/svg"><g filter="url('#filter0_d_1_69')"><rect x="19" y="19" width="100" height="100" rx="5" fill="#fff"/></g><mask id="mask0_1_69" style="mask-type:alpha" maskUnits="userSpaceOnUse" x="30" y="39" width="78" height="60"><rect x="30" y="39" width="78" height="60" rx="10" fill="#fff"/></mask><g mask="url('#mask0_1_69')" fill="#9E3040"><path d="m73.93 89.313-6.889-4.593.852-1.277 6.037 4.025 6.038-4.025.852 1.277-6.89 4.593ZM89.169 57.238a33.736 33.736 0 0 1-8.39-2.356 33.835 33.835 0 0 1-6.852-3.906c-4.491 3.3-9.721 5.45-15.234 6.262l-.223-1.52a32.58 32.58 0 0 0 14.992-6.308l.468-.357.46.357a32.233 32.233 0 0 0 6.985 4.063 32.2 32.2 0 0 0 8.009 2.248l-.215 1.517ZM79.302 73.661h-3.07v-1.535h3.07a.768.768 0 0 0 0-1.535h-1.534a2.302 2.302 0 0 1 0-4.604h3.07v1.535h-3.07a.767.767 0 0 0 0 1.534h1.534a2.302 2.302 0 1 1 0 4.605Z"/><path d="M77.768 64.452h1.534v2.302h-1.534v-2.302ZM77.768 72.894h1.534v2.302h-1.534v-2.302Z"/><path d="M91.959 52.91c-3.23-.227-6.4-.993-9.379-2.265a29.113 29.113 0 0 1-8.135-5.182L73.93 45l-.514.46a29.436 29.436 0 0 1-17.513 7.45l-1.16.076v5.326h-3.178a3.07 3.07 0 1 0 0 1.535h12.838l2.303 2.303h5.69v3.837h-6.59l-2.302-2.303H44v1.535h12.729l6.907 6.907h8.76v3.837H59.709l-3.132-3.76a3.134 3.134 0 1 0-1.117 1.058l2.25 2.703H44v1.534h22.3l-2.742 3.838H53.1a3.07 3.07 0 1 0 0 1.535h7.308a23.816 23.816 0 0 0 4.932 4.406l8.59 5.724 8.591-5.726a23.755 23.755 0 0 0 10.596-19.8V52.991l-1.158-.08Zm-43.354 7.705a1.535 1.535 0 1 1 0-3.07 1.535 1.535 0 0 1 0 3.07Zm5.372 11.511a1.535 1.535 0 1 1 0-3.07 1.535 1.535 0 0 1 0 3.07ZM50.14 83.638a1.535 1.535 0 1 1 0-3.07 1.535 1.535 0 0 1 0 3.07ZM64.27 70.591 58.9 65.22h3.97l2.302 2.303h7.224v3.07h-8.124Zm27.31-3.115A22.223 22.223 0 0 1 81.67 86l-7.74 5.159L66.192 86a22.584 22.584 0 0 1-3.732-3.13h1.889l3.837-5.373h4.21v6.907h1.534v-4.037a11.511 11.511 0 1 0 0-21.09v-4.035h-1.535v5.372h-5.054l-2.302-2.303h-8.76v-3.89a30.999 30.999 0 0 0 17.651-7.367 30.634 30.634 0 0 0 8.048 5.002 30.646 30.646 0 0 0 9.604 2.365v13.053Zm-13.046 10.79a8.442 8.442 0 1 0-4.605-15.52v-1.748a9.976 9.976 0 1 1 0 17.652V76.9a8.383 8.383 0 0 0 4.605 1.365ZM73.93 74.96V64.686a6.907 6.907 0 1 1 0 10.275Z"/></g><defs><filter id="filter0_d_1_69" x="0" y="0" width="138" height="138" filterUnits="userSpaceOnUse" color-interpolation-filters="sRGB"><feFlood flood-opacity="0" result="BackgroundImageFix"/><feColorMatrix in="SourceAlpha" values="0 0 0 0 0 0 0 0 0 0 0 0 0 0 0 0 0 0 127 0" result="hardAlpha"/><feOffset/><feGaussianBlur stdDeviation="9.5"/><feColorMatrix values="0 0 0 0 0 0 0 0 0 0 0 0 0 0 0 0 0 0 0.19 0"/><feBlend in2="BackgroundImageFix" result="effect1_dropShadow_1_69"/><feBlend in="SourceGraphic" in2="effect1_dropShadow_1_69" result="shape"/></filter></defs></svg>