<svg width="14" height="18" fill="none" xmlns="http://www.w3.org/2000/svg"><path d="M6.75 0a6.757 6.757 0 0 1 6.75 6.75c0 4.679-6.093 10.826-6.352 11.086a.565.565 0 0 1-.796 0C6.093 17.576 0 11.429 0 6.75A6.757 6.757 0 0 1 6.75 0Zm0 16.624c1.343-1.438 5.625-6.3 5.625-9.874A5.631 5.631 0 0 0 6.75 1.125 5.631 5.631 0 0 0 1.125 6.75c0 3.57 4.282 8.436 5.625 9.874Z" fill="#232323"/><path d="M6.75 3.375a3.38 3.38 0 0 1 3.375 3.375 3.38 3.38 0 0 1-3.375 3.375A3.38 3.38 0 0 1 3.375 6.75 3.38 3.38 0 0 1 6.75 3.375ZM6.75 9C7.99 9 9 7.99 9 6.75S7.99 4.5 6.75 4.5 4.5 5.51 4.5 6.75 5.51 9 6.75 9Z" fill="#232323"/></svg>