<svg width="25" height="22" fill="none" xmlns="http://www.w3.org/2000/svg"><path d="M12.354 22c-.352 0-.691-.128-.955-.36-.998-.873-1.96-1.694-2.81-2.418l-.004-.003c-2.49-2.123-4.639-3.957-6.134-5.763C.779 11.437 0 9.523 0 7.432 0 5.4.696 3.524 1.96 2.152 3.24.765 4.994 0 6.902 0c1.427 0 2.733.451 3.882 1.341.58.45 1.106 1 1.57 1.64a7.95 7.95 0 0 1 1.57-1.64C15.074.451 16.379 0 17.806 0c1.908 0 3.663.765 4.942 2.153 1.264 1.372 1.96 3.247 1.96 5.278 0 2.092-.779 4.006-2.45 6.025-1.496 1.806-3.646 3.64-6.134 5.762-.851.725-1.815 1.548-2.815 2.423a1.45 1.45 0 0 1-.955.359ZM6.902 1.449a5.21 5.21 0 0 0-3.878 1.686C2.007 4.239 1.447 5.765 1.447 7.43c0 1.76.653 3.332 2.118 5.1 1.415 1.71 3.52 3.506 5.958 5.585l.005.004c.852.727 1.818 1.551 2.824 2.43a337.47 337.47 0 0 1 2.833-2.434c2.437-2.08 4.543-3.875 5.958-5.584 1.464-1.769 2.117-3.342 2.117-5.1 0-1.668-.56-3.193-1.576-4.297a5.21 5.21 0 0 0-3.878-1.686c-1.099 0-2.107.349-2.997 1.038-.794.614-1.346 1.39-1.67 1.934a.906.906 0 0 1-.785.446.906.906 0 0 1-.785-.446c-.324-.543-.876-1.32-1.67-1.934-.89-.69-1.899-1.038-2.997-1.038Z" fill="#232323"/></svg>